HIERARCHY
ROOT ui
{
	 OFFSET 0 0 0
	 CHANNELS 3 XPosition YPosition Z Position
	 EndSite
	 {
	 OFFSET 0 -1 0
	 }
}
ROOT li
{
	 OFFSET 0 0 0
	 CHANNELS 3 XPosition YPosition Z Position
	 EndSite
	 {
	 OFFSET 0 -1 0
	 }
}
ROOT ul
{
	 OFFSET 0 0 0
	 CHANNELS 3 XPosition YPosition Z Position
	 EndSite
	 {
	 OFFSET 0 -1 0
	 }
}
ROOT ll
{
	 OFFSET 0 0 0
	 CHANNELS 3 XPosition YPosition Z Position
	 EndSite
	 {
	 OFFSET 0 -1 0
	 }
}
ROOT tt
{
	 OFFSET 0 0 0
	 CHANNELS 3 XPosition YPosition Z Position
	 EndSite
	 {
	 OFFSET 0 -1 0
	 }
}
ROOT tb
{
	 OFFSET 0 0 0
	 CHANNELS 3 XPosition YPosition Z Position
	 EndSite
	 {
	 OFFSET 0 -1 0
	 }
}
ROOT td
{
	 OFFSET 0 0 0
	 CHANNELS 3 XPosition YPosition Z Position
	 EndSite
	 {
	 OFFSET 0 -1 0
	 }
}
ROOT v
{
	 OFFSET 0 0 0
	 CHANNELS 3 XPosition YPosition Z Position
	 EndSite
	 {
	 OFFSET 0 -1 0
	 }
}
ROOT bn
{
	 OFFSET 0 0 0
	 CHANNELS 3 XPosition YPosition Z Position
	 EndSite
	 {
	 OFFSET 0 -1 0
	 }
}
MOTION
Frames: 13
Frame Time: 0.002
0.0029295880794525148	8.415910005569458E-4	0		0.49127880859375	-2.29671484375	0		-1.092493408203125	0.04430865478515625	0		-0.7813497314453125	-2.50129638671875	0		1.4092908935546875	-0.5829423828125	0		3.168687744140625	-0.09952439880371093	0		4.8395966796875	-0.05967814636230469	0		5.62994873046875	0.09296116638183594	0		-0.2388435516357422	5.89075244140625	0		
0.01105743408203125	-0.009049285888671875	0		0.4618914489746094	-2.2959052734375	0		-1.094202880859375	0.04443463516235351	0		-0.7138397827148437	-2.50928076171875	0		1.4255972900390625	-0.586776611328125	0		3.171080810546875	-0.09388670349121093	0		4.8379013671875	-0.05874574279785156	0		5.6275283203125	0.12420327758789063	0		-0.2555297546386719	5.88022998046875	0		
0.024560985565185548	9.866030216217042E-4	0		0.5104035339355468	-2.3043857421875	0		-1.095870361328125	0.04456991195678711	0		-0.7609703979492187	-2.497332275390625	0		1.397919921875	-0.5918659057617187	0		3.18343017578125	-0.09340202331542968	0		4.8290498046875	-0.0696839599609375	0		5.63055615234375	0.1137214584350586	0		-0.3781422119140625	5.872470703125	0		
-0.00203745698928833	0.001691769003868103	0		0.4572003173828125	-2.298172119140625	0		-1.09747802734375	0.04471358108520508	0		-0.7164241333007813	-2.508898681640625	0		1.436359375	-0.594045166015625	0		3.158876953125	-0.09030615997314453	0		4.82745751953125	-0.06874528503417969	0		5.6222998046875	0.11579568481445313	0		-0.2603836364746094	5.88073583984375	0		
0.03126682090759277	-0.008584495544433593	0		0.46483966064453125	-2.305964599609375	0		-1.0990115966796874	0.04486465072631836	0		-0.7885346069335938	-2.502540283203125	0		1.4000604248046875	-0.5839948120117188	0		3.16224609375	-0.09668242645263672	0		4.82080859375	-0.07574134063720703	0		5.625388671875	0.10008087158203124	0		-0.38085586547851563	5.87092236328125	0		
0.00789254903793335	-0.003930830001831055	0		0.4609267272949219	-2.290566162109375	0		-1.0904937744140626	0.042860385894775394	0		-0.7126602172851563	-2.50259130859375	0		1.421735595703125	-0.5808994140625	0		3.172056640625	-0.08117512512207031	0		4.8306650390625	-0.05702816390991211	0		5.62314599609375	0.13124296569824218	0		-0.24870657348632813	5.88999658203125	0		
0.01863629722595215	0.0021690540313720704	0		0.48377740478515624	-2.2946044921875	0		-1.1018170166015624	0.04518509674072266	0		-0.78869140625	-2.500177001953125	0		1.4004549560546875	-0.580117919921875	0		3.154588134765625	-0.0882508087158203	0		4.83035205078125	-0.054183120727539065	0		5.6221962890625	0.1328761901855469	0		-0.2668942565917969	5.8815185546875	0		
0.0022209250926971437	-0.007297924041748047	0		0.45477670288085936	-2.29381396484375	0		-1.108998779296875	0.05044892883300781	0		-0.7207935791015625	-2.508074462890625	0		1.41108447265625	-0.5908633422851562	0		3.144229736328125	-0.09446800994873047	0		4.82191015625	-0.0652467498779297	0		5.61838037109375	0.12243600463867188	0		-0.4021187744140625	5.86290478515625	0		
0.013151871681213378	-0.0012012280225753783	0		0.47776568603515623	-2.29885986328125	0		-1.1042474365234376	0.045528446197509766	0		-0.792612060546875	-2.501735107421875	0		1.4099814453125	-0.590431396484375	0		3.15707421875	-0.09408069610595703	0		4.82075341796875	-0.06446566009521484	0		5.6175634765625	0.12391200256347656	0		-0.27153408813476565	5.8840546875	0		
-0.009854155540466309	0.003431641101837158	0		0.45299227905273437	-2.293151611328125	0		-1.10532373046875	0.045709583282470705	0		-0.7225358276367188	-2.507643310546875	0		1.391030517578125	-0.5857298583984375	0		3.1511220703125	-0.08641984558105469	0		4.82687548828125	-0.05183779525756836	0		5.6209765625	0.1078450927734375	0		-0.39135107421875	5.8731767578125	0		
0.02400014877319336	-0.0068331131935119626	0		0.4542376403808594	-2.2908603515625	0		-1.102265380859375	0.04883449935913086	0		-0.7901536865234375	-2.497372802734375	0		1.3962059326171874	-0.5784207153320312	0		3.155034912109375	-0.09294089508056641	0		4.83077001953125	-0.059213645935058595	0		5.6190498046875	0.13862477111816407	0		-0.25951519775390625	5.893337890625	0		
-0.00869438076019287	0.006949564933776855	0		0.47948370361328124	-2.292946533203125	0		-1.1072174072265626	0.04609269714355469	0		-0.721974365234375	-2.50522802734375	0		1.4102235107421874	-0.5862595825195313	0		3.158218017578125	-0.0874698257446289	0		4.824998046875	-0.05046923065185547	0		5.62261669921875	0.12760469818115233	0		-0.2608857727050781	5.8936005859375	0		
0.012429938316345215	0.003891097068786621	0		0.45082891845703127	-2.292193359375	0		-1.1080467529296876	0.046295101165771485	0		-0.7595969848632812	-2.503423095703125	0		1.4094404296875	-0.5858729248046874	0		3.1573984375	-0.08695529174804688	0		4.82417578125	-0.04983272933959961	0		5.6178349609375	0.14106509399414063	0		-0.2621429748535156	5.89386474609375	0		
